<svg xmlns="http://www.w3.org/2000/svg" viewBox="0 0 1200 630"><defs><style>.cls-1{fill:#91b4bc;}.cls-2{fill:none;}.cls-3{fill:#1562b7;}</style></defs><g id="colored"><g id="text_-_light" data-name="text - light"><path class="cls-1" d="M10.52,476.76a10.34,10.34,0,0,1-7.65-2.87A10.37,10.37,0,0,1,0,466.23V152.91q0-5.26,2.87-8.14a10.34,10.34,0,0,1,7.65-2.87H112.41q50.7,0,79.41,14.83t40.9,43.77q12.21,29,12.68,70.56.47,21.53.48,38t-.48,38q-1,44-12.92,72.71T192.3,462.65q-28.23,14.12-77.49,14.11Zm19.62-28.7h82.27q38.28,0,60.52-10.29a62.36,62.36,0,0,0,32-33q9.79-22.71,10.28-60,.48-14.36.48-25.12V298.33q0-10.51-.48-24.88-1-52.6-24.39-77.73T110,170.6H30.14Z"/><path class="cls-1" d="M306.65,477.26a9.88,9.88,0,0,1-10.52-10.53V153.41q0-5.26,2.87-8.14a10.34,10.34,0,0,1,7.65-2.87H422.9q33.47,0,58.12,11.25t38.27,33.24q13.63,22,13.63,54.53T519.29,296Q505.66,318,481,329.2T422.9,340.45H326.27V466.73a10.35,10.35,0,0,1-2.87,7.66q-2.88,2.87-8.14,2.87Zm19.62-165.52H420.5q41.63,0,61.95-18.17t20.33-52.15q0-33.94-20.33-52.14T420.5,171.11H326.27Z"/><path class="cls-1" d="M519.52,475.62a14.94,14.94,0,0,1-9.8-3.65L359.84,342.54a15,15,0,1,1,19.61-22.71L529.33,449.26a15,15,0,0,1-9.81,26.36Z"/><path class="cls-2" d="M605.84,476.76a9.57,9.57,0,0,1-9.32-9.32,16.07,16.07,0,0,1,.94-5.12L715.32,160a16,16,0,0,1,4.89-7c2-1.55,4.89-2.33,8.62-2.33h15.83q5.6,0,8.62,2.33a16.15,16.15,0,0,1,4.89,7L876,462.32a16.36,16.36,0,0,1,.94,5.12,9.57,9.57,0,0,1-9.32,9.32h-9.32c-3.11,0-5.43-.85-7-2.56a21.18,21.18,0,0,1-3.26-4.43L819.2,395.23H654.29l-28.88,74.54a10.87,10.87,0,0,1-3,4.43q-2.57,2.57-7.22,2.56Zm59.44-112.42H811.66L738.47,175.87Z"/><polygon class="cls-3" points="637.15 319.5 569.75 440.99 594.23 470.94 780.11 482.5 915.62 459.24 922 436.18 849.73 319.5 637.15 319.5"/><path class="cls-1" d="M930.42,423.62,795.45,194l13.95-28.56.13-.32a21.91,21.91,0,0,0-20.24-30.35H703.17a21.92,21.92,0,0,0-20.24,30.35L697,194,562,423.62c-5,8.68-5.9,18.28-2.5,27,4.25,10.94,14.73,19.74,28.76,24.16,40.19,12.67,119.07,20.45,157.93,20.45,42.38,0,122.1-6.57,158.65-20.7,14.51-5.6,24.59-14.62,28.39-25.39C936.22,440.79,935.24,432,930.42,423.62ZM746.23,471.26c-36.44,0-113.27-7.54-150.72-19.34-6.74-2.13-12.09-6-13.62-10-.51-1.31-.86-3.21.9-6.29L646.66,327H845.8l27.07,46.06H816.24a27.08,27.08,0,1,0,0,18.24h67.35l26.08,44.36c1.61,2.8,1.37,4.42,1,5.52-1.35,3.82-7,8.13-14.42,11C864,464.62,788.41,471.26,746.23,471.26ZM790.75,391a8.84,8.84,0,1,1,8.84-8.84A8.85,8.85,0,0,1,790.75,391ZM706.49,158.74H786L768.24,195,831.7,303H660.76l63.33-107.75.14-.23Z"/><path class="cls-1" d="M973.73,476.76a9.88,9.88,0,0,1-10.52-10.53V152.91q0-5.26,2.87-8.14a10.34,10.34,0,0,1,7.65-2.87H1090q33.46,0,58.12,11.24t38.27,33.25q13.64,22,13.63,54.53t-13.63,54.54q-13.63,22-38.27,33.24T1090,340H993.35V466.23a10.37,10.37,0,0,1-2.87,7.66q-2.88,2.87-8.14,2.87Zm19.62-165.52h94.23q41.63,0,62-18.17t20.33-52.15q0-34-20.33-52.14t-62-18.18H993.35Z"/></g></g></svg>