<svg xmlns="http://www.w3.org/2000/svg" viewBox="0 0 1080 1080"><defs><style>.cls-1{fill:#1562b7;}.cls-2{fill:#91b4bc;}</style></defs><g id="colored"><polygon class="cls-1" points="235 530 45 883 114 970 638 1003.6 1020 936 1038 869 834.28 530 235 530"/><path id="shape_-_light" data-name="shape - light" class="cls-2" d="M1051.66,843.11l-376.16-640,39.14-80.09.37-.89A59.65,59.65,0,0,0,660,39.58H420.18a59.66,59.66,0,0,0-55.07,82.59l.37.89,39.14,80.09-376,639.74-.12.22c-13.74,23.8-16.18,50.08-6.88,74,11.68,30,40.55,54.26,79.2,66.44,111.76,35.24,331.17,56.87,439.27,56.87,117.88,0,339.61-18.29,441.19-57.54,40-15.46,67.79-40.26,78.23-69.85C1067.56,890.14,1064.85,866,1051.66,843.11ZM477.22,205.94l-50-102.36H652.93l-50,102.36L780.45,508H299.68ZM999.13,891.73c-3.88,11-20,23.34-41,31.45-89.89,34.74-300.58,53.24-418.12,53.24-101.54,0-315.65-21-420-53.91-19.16-6-34.38-17.26-38.79-28.6-1.53-3.94-2.62-9.62,2.6-18.71L262.06,572h556l77,131H734a74,74,0,1,0,0,48h189.3l73,124.2C1001.05,883.49,1000.31,888.39,999.13,891.73ZM690,727a26,26,0,1,1-26-26A26,26,0,0,1,690,727Z"/></g></svg>